<svg xmlns="http://www.w3.org/2000/svg" version="1.1" width="1024" height="680">
<rect x="0" y="0" width="1024" height="680" fill="#444933" />
<g transform="scale(4.000000) translate(0.5 0.5)">
<polygon fill="#ffff00" fill-opacity="0.501961" points="92,185 169,146 124,56" />
<polygon fill="#00030f" fill-opacity="0.501961" points="97,-8 -16,-4 3,185" />
<polygon fill="#8d8e8f" fill-opacity="0.501961" points="52,92 120,30 247,67" />
<polygon fill="#000000" fill-opacity="0.501961" points="255,-16 92,5 271,63" />
<polygon fill="#ffd700" fill-opacity="0.501961" points="156,179 92,133 133,69" />
<polygon fill="#676e94" fill-opacity="0.501961" points="118,181 28,120 76,77" />
<polygon fill="#000000" fill-opacity="0.501961" points="252,185 205,110 271,81" />
<polygon fill="#8f92a5" fill-opacity="0.501961" points="215,68 142,32 199,125" />
<polygon fill="#222c1b" fill-opacity="0.501961" points="126,22 147,114 173,73" />
<polygon fill="#4a495f" fill-opacity="0.501961" points="161,128 266,151 144,170" />
<polygon fill="#95a2b5" fill-opacity="0.501961" points="120,22 113,60 53,101" />
<polygon fill="#ffe400" fill-opacity="0.501961" points="162,114 98,117 112,161" />
<polygon fill="#25232e" fill-opacity="0.501961" points="121,185 103,143 -16,158" />
<polygon fill="#2b351a" fill-opacity="0.501961" points="127,39 92,104 111,117" />
<polygon fill="#000800" fill-opacity="0.501961" points="-2,185 -16,-8 37,140" />
<polygon fill="#193234" fill-opacity="0.501961" points="44,103 8,7 145,-16" />
<polygon fill="#fffd09" fill-opacity="0.501961" points="127,73 109,92 144,89" />
<polygon fill="#0e251a" fill-opacity="0.501961" points="115,8 210,63 271,-8" />
<polygon fill="#b49278" fill-opacity="0.501961" points="192,74 252,65 232,52" />
<polygon fill="#829cad" fill-opacity="0.501961" points="60,92 55,116 90,141" />
<polygon fill="#000300" fill-opacity="0.501961" points="206,135 271,142 246,93" />
<polygon fill="#838b95" fill-opacity="0.501961" points="166,157 205,142 160,141" />
<polygon fill="#3e463a" fill-opacity="0.501961" points="123,-14 157,77 121,73" />
<polygon fill="#86a2c4" fill-opacity="0.501961" points="143,43 136,29 152,24" />
<polygon fill="#78746f" fill-opacity="0.501961" points="17,181 85,153 101,185" />
<polygon fill="#8a6300" fill-opacity="0.501961" points="114,185 117,152 148,150" />
<polygon fill="#2d3232" fill-opacity="0.501961" points="141,65 143,110 204,133" />
<polygon fill="#000903" fill-opacity="0.501961" points="257,56 157,-16 271,0" />
<polygon fill="#ffdb00" fill-opacity="0.501961" points="137,109 160,121 149,150" />
<polygon fill="#0c1a24" fill-opacity="0.501961" points="105,114 118,112 87,85" />
<polygon fill="#223235" fill-opacity="0.501961" points="149,150 221,125 169,117" />
<polygon fill="#ceaf9a" fill-opacity="0.501961" points="134,52 116,64 134,63" />
<polygon fill="#141b14" fill-opacity="0.501961" points="211,89 220,69 271,68" />
<polygon fill="#545f6c" fill-opacity="0.501961" points="154,116 201,124 219,80" />
<polygon fill="#272c22" fill-opacity="0.501961" points="56,127 18,157 12,117" />
<polygon fill="#a58a7b" fill-opacity="0.501961" points="55,133 38,149 62,141" />
<polygon fill="#ffef07" fill-opacity="0.501961" points="98,134 102,115 156,113" />
<polygon fill="#e2b800" fill-opacity="0.501961" points="145,80 128,161 113,88" />
<polygon fill="#2c3a2a" fill-opacity="0.501961" points="238,33 108,-4 208,66" />
<polygon fill="#9f9077" fill-opacity="0.501961" points="43,109 44,120 23,122" />
<polygon fill="#b69473" fill-opacity="0.501961" points="203,58 212,83 172,57" />
<polygon fill="#313a31" fill-opacity="0.501961" points="83,128 116,72 112,109" />
<polygon fill="#000401" fill-opacity="0.501961" points="12,70 37,95 -16,126" />
<polygon fill="#504744" fill-opacity="0.501961" points="235,99 211,100 179,64" />
<polygon fill="#9cabb5" fill-opacity="0.501961" points="89,61 62,105 70,76" />
<polygon fill="#4c3900" fill-opacity="0.501961" points="160,162 121,165 131,185" />
<polygon fill="#3b4436" fill-opacity="0.501961" points="17,33 62,17 18,69" />
<polygon fill="#8aa2b5" fill-opacity="0.501961" points="168,61 192,78 202,102" />
<polygon fill="#4c4f53" fill-opacity="0.501961" points="94,56 107,4 125,23" />
<polygon fill="#00171d" fill-opacity="0.501961" points="-16,29 10,-16 67,5" />
<polygon fill="#2a3527" fill-opacity="0.501961" points="189,99 128,66 155,104" />
<polygon fill="#384129" fill-opacity="0.501961" points="100,107 126,71 76,88" />
<polygon fill="#f3cb00" fill-opacity="0.501961" points="130,161 149,164 150,153" />
<polygon fill="#272a31" fill-opacity="0.501961" points="200,185 271,156 227,140" />
<polygon fill="#939089" fill-opacity="0.501961" points="100,35 121,42 96,84" />
<polygon fill="#9ea3a3" fill-opacity="0.501961" points="86,138 99,137 67,119" />
<polygon fill="#041510" fill-opacity="0.501961" points="74,18 39,38 49,69" />
<polygon fill="#806960" fill-opacity="0.501961" points="262,90 226,90 241,79" />
<polygon fill="#2f332b" fill-opacity="0.501961" points="168,107 141,112 146,66" />
<polygon fill="#03190d" fill-opacity="0.501961" points="90,44 100,6 108,27" />
<polygon fill="#3c3436" fill-opacity="0.501961" points="175,175 149,185 152,141" />
<polygon fill="#080d10" fill-opacity="0.501961" points="61,147 23,167 -16,163" />
<polygon fill="#d5ad00" fill-opacity="0.501961" points="112,166 99,128 160,134" />
<polygon fill="#414140" fill-opacity="0.501961" points="80,136 99,185 109,149" />
<polygon fill="#95a0b6" fill-opacity="0.501961" points="173,151 167,139 160,152" />
<polygon fill="#313d3e" fill-opacity="0.501961" points="88,-12 37,123 89,51" />
<polygon fill="#273a2b" fill-opacity="0.501961" points="163,45 132,-3 200,38" />
<polygon fill="#263326" fill-opacity="0.501961" points="218,140 177,112 163,136" />
<polygon fill="#2d3b2d" fill-opacity="0.501961" points="149,10 127,4 120,67" />
<polygon fill="#997c5c" fill-opacity="0.501961" points="81,89 95,122 78,102" />
<polygon fill="#c7b5a3" fill-opacity="0.501961" points="171,45 181,62 192,58" />
<polygon fill="#4d4c44" fill-opacity="0.501961" points="187,64 203,54 183,76" />
<polygon fill="#857e71" fill-opacity="0.501961" points="65,140 92,148 78,150" />
<polygon fill="#564635" fill-opacity="0.501961" points="184,145 218,163 146,177" />
<polygon fill="#8d9aa6" fill-opacity="0.501961" points="71,69 109,67 106,47" />
<polygon fill="#ffff20" fill-opacity="0.501961" points="127,75 117,85 143,88" />
<polygon fill="#bda78b" fill-opacity="0.501961" points="163,73 178,88 174,78" />
<polygon fill="#484544" fill-opacity="0.501961" points="32,36 32,76 46,67" />
<polygon fill="#4e533f" fill-opacity="0.501961" points="106,86 113,47 130,71" />
<polygon fill="#4a5559" fill-opacity="0.501961" points="92,66 65,104 74,120" />
<polygon fill="#fff102" fill-opacity="0.501961" points="120,112 140,131 99,120" />
<polygon fill="#424751" fill-opacity="0.501961" points="69,104 98,122 96,136" />
<polygon fill="#1d281b" fill-opacity="0.501961" points="213,104 249,87 211,147" />
<polygon fill="#fdd700" fill-opacity="0.501961" points="113,105 124,81 115,87" />
<polygon fill="#ba9f83" fill-opacity="0.501961" points="204,77 230,64 187,68" />
<polygon fill="#688090" fill-opacity="0.501961" points="196,84 207,104 188,120" />
<polygon fill="#33372d" fill-opacity="0.501961" points="235,77 217,121 179,149" />
<polygon fill="#ffee0e" fill-opacity="0.501961" points="153,130 156,115 130,110" />
<polygon fill="#b99905" fill-opacity="0.501961" points="140,109 118,90 131,118" />
<polygon fill="#344045" fill-opacity="0.501961" points="82,63 107,44 93,43" />
<polygon fill="#768484" fill-opacity="0.501961" points="222,145 199,147 192,139" />
<polygon fill="#5b4e00" fill-opacity="0.501961" points="136,159 127,150 142,157" />
<polygon fill="#455a70" fill-opacity="0.501961" points="192,90 170,68 195,112" />
<polygon fill="#172519" fill-opacity="0.501961" points="224,52 254,20 153,18" />
<polygon fill="#122511" fill-opacity="0.501961" points="22,95 34,115 68,73" />
<polygon fill="#918785" fill-opacity="0.501961" points="73,36 82,29 82,34" />
<polygon fill="#7990a4" fill-opacity="0.501961" points="142,39 175,66 179,53" />
<polygon fill="#d0b799" fill-opacity="0.501961" points="44,118 40,118 42,127" />
<polygon fill="#d89100" fill-opacity="0.501961" points="148,147 159,119 160,132" />
<polygon fill="#4b4b54" fill-opacity="0.501961" points="117,4 103,22 105,-12" />
<polygon fill="#020201" fill-opacity="0.501961" points="249,75 271,106 271,67" />
<polygon fill="#000b01" fill-opacity="0.501961" points="228,139 267,144 271,69" />
<polygon fill="#182513" fill-opacity="0.501961" points="174,89 145,86 170,107" />
<polygon fill="#8f7b69" fill-opacity="0.501961" points="217,90 219,100 208,82" />
<polygon fill="#4d5743" fill-opacity="0.501961" points="182,75 139,80 145,91" />
<polygon fill="#afa69a" fill-opacity="0.501961" points="59,103 65,102 69,120" />
<polygon fill="#66574c" fill-opacity="0.501961" points="181,84 188,101 159,123" />
<polygon fill="#211d21" fill-opacity="0.501961" points="207,156 271,170 226,185" />
<polygon fill="#7d685c" fill-opacity="0.501961" points="238,69 270,66 259,54" />
<polygon fill="#5b6071" fill-opacity="0.501961" points="29,144 30,151 46,143" />
<polygon fill="#1e2620" fill-opacity="0.501961" points="108,94 87,95 117,113" />
<polygon fill="#485050" fill-opacity="0.501961" points="158,109 180,150 161,140" />
<polygon fill="#3c423f" fill-opacity="0.501961" points="160,18 147,34 162,49" />
<polygon fill="#938c83" fill-opacity="0.501961" points="68,166 81,157 69,159" />
<polygon fill="#433c34" fill-opacity="0.501961" points="45,185 103,149 113,168" />
<polygon fill="#424534" fill-opacity="0.501961" points="195,60 180,35 228,59" />
<polygon fill="#8e887c" fill-opacity="0.501961" points="40,115 31,115 26,126" />
<polygon fill="#101516" fill-opacity="0.501961" points="46,137 25,147 49,125" />
<polygon fill="#454a55" fill-opacity="0.501961" points="47,96 72,143 53,131" />
<polygon fill="#47523f" fill-opacity="0.501961" points="138,36 163,57 133,52" />
<polygon fill="#c2ad95" fill-opacity="0.501961" points="123,63 130,66 131,54" />
<polygon fill="#c8b399" fill-opacity="0.501961" points="183,51 159,44 171,52" />
<polygon fill="#ffed20" fill-opacity="0.501961" points="136,77 121,79 143,91" />
<polygon fill="#4e583e" fill-opacity="0.501961" points="97,72 111,74 113,103" />
<polygon fill="#55677c" fill-opacity="0.501961" points="159,47 178,66 179,55" />
<polygon fill="#172c21" fill-opacity="0.501961" points="58,29 117,27 80,15" />
<polygon fill="#525f61" fill-opacity="0.501961" points="104,17 80,9 83,16" />
<polygon fill="#a69b8d" fill-opacity="0.501961" points="121,42 113,33 98,68" />
<polygon fill="#36352c" fill-opacity="0.501961" points="158,118 179,99 141,101" />
<polygon fill="#7d93a6" fill-opacity="0.501961" points="156,53 145,25 138,31" />
<polygon fill="#527594" fill-opacity="0.501961" points="65,125 99,138 84,139" />
<polygon fill="#12201a" fill-opacity="0.501961" points="-16,88 -16,62 41,35" />
<polygon fill="#fce002" fill-opacity="0.501961" points="109,138 98,122 153,117" />
<polygon fill="#262f20" fill-opacity="0.501961" points="210,76 240,66 228,92" />
<polygon fill="#d09500" fill-opacity="0.501961" points="108,139 99,131 104,147" />
<polygon fill="#232c34" fill-opacity="0.501961" points="88,152 59,144 24,173" />
<polygon fill="#ffff00" fill-opacity="0.501961" points="139,104 137,107 127,106" />
<polygon fill="#8a9299" fill-opacity="0.501961" points="162,143 162,155 179,149" />
<polygon fill="#38393c" fill-opacity="0.501961" points="145,173 156,146 164,149" />
<polygon fill="#7d7168" fill-opacity="0.501961" points="120,48 111,43 109,69" />
<polygon fill="#1d2819" fill-opacity="0.501961" points="162,72 143,76 136,66" />
<polygon fill="#496279" fill-opacity="0.501961" points="66,100 73,120 77,80" />
<polygon fill="#112e32" fill-opacity="0.501961" points="120,0 -3,-16 59,13" />
<polygon fill="#0f1c0d" fill-opacity="0.501961" points="249,87 271,119 202,134" />
<polygon fill="#282f27" fill-opacity="0.501961" points="23,154 35,171 45,146" />
<polygon fill="#61615b" fill-opacity="0.501961" points="88,165 99,149 55,167" />
<polygon fill="#283427" fill-opacity="0.501961" points="23,129 29,118 -5,115" />
<polygon fill="#6e6a5e" fill-opacity="0.501961" points="167,159 155,151 192,154" />
<polygon fill="#a27b00" fill-opacity="0.501961" points="124,104 134,104 140,94" />
<polygon fill="#000703" fill-opacity="0.501961" points="30,89 16,117 -16,64" />
<polygon fill="#332428" fill-opacity="0.501961" points="140,109 144,107 141,112" />
<polygon fill="#223633" fill-opacity="0.501961" points="111,35 107,44 107,24" />
<polygon fill="#41596c" fill-opacity="0.501961" points="80,127 92,125 68,114" />
<polygon fill="#9c9478" fill-opacity="0.501961" points="104,42 94,43 106,35" />
<polygon fill="#b79800" fill-opacity="0.501961" points="136,165 148,161 147,167" />
<polygon fill="#444a36" fill-opacity="0.501961" points="166,80 154,48 130,57" />
<polygon fill="#464237" fill-opacity="0.501961" points="115,169 105,156 74,161" />
<polygon fill="#a7977f" fill-opacity="0.501961" points="198,100 196,112 188,121" />
<polygon fill="#79756f" fill-opacity="0.501961" points="99,160 98,176 95,166" />
<polygon fill="#6f793e" fill-opacity="0.501961" points="128,112 130,118 132,117" />
<polygon fill="#ffd600" fill-opacity="0.501961" points="125,147 109,145 109,159" />
<polygon fill="#000000" fill-opacity="0.501961" points="241,11 267,-15 256,24" />
<polygon fill="#998578" fill-opacity="0.501961" points="63,143 58,136 47,146" />
<polygon fill="#172615" fill-opacity="0.501961" points="174,125 170,139 182,141" />
<polygon fill="#19291e" fill-opacity="0.501961" points="101,34 91,53 88,9" />
<polygon fill="#56728d" fill-opacity="0.501961" points="62,82 55,110 63,127" />
<polygon fill="#f0d5ae" fill-opacity="0.501961" points="101,61 105,55 105,61" />
<polygon fill="#3a4430" fill-opacity="0.501961" points="168,47 157,37 172,32" />
<polygon fill="#384336" fill-opacity="0.501961" points="192,143 180,105 168,123" />
<polygon fill="#1b2418" fill-opacity="0.501961" points="37,120 41,143 19,141" />
<polygon fill="#4e5947" fill-opacity="0.501961" points="55,31 41,27 54,21" />
<polygon fill="#484a4e" fill-opacity="0.501961" points="26,55 18,55 11,71" />
<polygon fill="#e0cab1" fill-opacity="0.501961" points="98,76 99,78 92,80" />
<polygon fill="#e7be00" fill-opacity="0.501961" points="149,151 137,147 156,121" />
<polygon fill="#3c3b32" fill-opacity="0.501961" points="203,84 209,123 223,128" />
<polygon fill="#505556" fill-opacity="0.501961" points="68,67 73,73 89,57" />
<polygon fill="#474b43" fill-opacity="0.501961" points="62,88 54,105 52,84" />
<polygon fill="#485c6f" fill-opacity="0.501961" points="187,119 196,106 185,94" />
<polygon fill="#bfbab4" fill-opacity="0.501961" points="79,159 73,157 72,159" />
<polygon fill="#474742" fill-opacity="0.501961" points="197,154 208,143 246,162" />
<polygon fill="#2b343f" fill-opacity="0.501961" points="105,20 61,68 61,45" />
<polygon fill="#826e5f" fill-opacity="0.501961" points="82,115 79,92 92,108" />
<polygon fill="#5e4d00" fill-opacity="0.501961" points="129,163 150,169 101,178" />
<polygon fill="#9e8a00" fill-opacity="0.501961" points="122,166 114,155 133,149" />
<polygon fill="#040606" fill-opacity="0.501961" points="33,158 -16,154 -2,172" />
<polygon fill="#293221" fill-opacity="0.501961" points="137,50 125,53 121,40" />
<polygon fill="#50535d" fill-opacity="0.501961" points="156,64 183,86 166,62" />
<polygon fill="#827b74" fill-opacity="0.501961" points="31,47 34,49 38,45" />
<polygon fill="#9fa8ab" fill-opacity="0.501961" points="143,33 162,53 150,47" />
<polygon fill="#f3c700" fill-opacity="0.501961" points="138,114 115,108 114,95" />
<polygon fill="#342f2c" fill-opacity="0.501961" points="248,62 255,55 236,56" />
<polygon fill="#918b72" fill-opacity="0.501961" points="199,149 191,146 196,151" />
<polygon fill="#89796a" fill-opacity="0.501961" points="236,89 251,86 235,84" />
<polygon fill="#1c2829" fill-opacity="0.501961" points="38,72 -15,56 10,76" />
<polygon fill="#85857a" fill-opacity="0.501961" points="105,73 104,50 116,63" />
<polygon fill="#496986" fill-opacity="0.501961" points="207,109 204,92 192,120" />
<polygon fill="#9f8a76" fill-opacity="0.501961" points="41,126 41,117 37,127" />
<polygon fill="#c1ab92" fill-opacity="0.501961" points="175,83 180,86 182,91" />
<polygon fill="#737e8c" fill-opacity="0.501961" points="155,145 163,153 173,148" />
<polygon fill="#ffe909" fill-opacity="0.501961" points="100,127 111,114 134,118" />
</g>
</svg>